<svg width="200" height="200" viewBox="0 0 200 200" fill="none" xmlns="http://www.w3.org/2000/svg">
  <path d="M45 160 V95 A55 55 0 0 1 155 95 V160 H142 V95 A42 42 0 0 0 58 95 V160 H45Z" fill="#CE7D55"/>
  
  <circle cx="100" cy="90" r="14" fill="#D4AF37"/>
  <g stroke="#D4AF37" stroke-width="2.5" stroke-linecap="round">
    <line x1="100" y1="70" x2="100" y2="55"/>
    <line x1="122" y1="76" x2="135" y2="65"/>
    <line x1="78" y1="76" x2="65" y2="65"/>
    <line x1="138" y1="95" x2="152" y2="95"/>
    <line x1="62" y1="95" x2="48" y2="95"/>
  </g>

  <defs>
    <clipPath id="archClip">
      <path d="M58 160 V95 A42 42 0 0 1 142 95 V160 Z"/>
    </clipPath>
  </defs>
  
  <g clip-path="url(#archClip)">
    <path d="M40 120 Q70 105 100 125 T160 120 V165 H40Z" fill="#003D4D"/>
    <path d="M40 138 Q70 125 100 145 T160 138 V165 H40Z" fill="#1D7874"/>
    <path d="M40 152 Q70 140 100 158 T160 152 V165 H40Z" fill="#67B7B3"/>
  </g>
</svg>